<svg width="26" height="27" viewBox="0 0 26 27" fill="none" xmlns="http://www.w3.org/2000/svg">
<path d="M6.5 24.5996C6.38056 24.5996 6.26031 24.5728 6.14738 24.5192C5.86706 24.3835 5.6875 24.0999 5.6875 23.7871V19.7246H3.25C1.90612 19.7246 0.8125 18.631 0.8125 17.2871V4.28711C0.8125 2.94323 1.90612 1.84961 3.25 1.84961H22.75C24.0939 1.84961 25.1875 2.94323 25.1875 4.28711V17.2871C25.1875 18.631 24.0939 19.7246 22.75 19.7246H12.8789L7.00781 24.4217C6.86075 24.5395 6.68119 24.5996 6.5 24.5996ZM3.25 3.47461C2.8015 3.47461 2.4375 3.83942 2.4375 4.28711V17.2871C2.4375 17.7348 2.8015 18.0996 3.25 18.0996H6.5C6.94931 18.0996 7.3125 18.4628 7.3125 18.9121V22.0971L12.0859 18.2775C12.2306 18.1622 12.4085 18.0996 12.5938 18.0996H22.75C23.1985 18.0996 23.5625 17.7348 23.5625 17.2871V4.28711C23.5625 3.83942 23.1985 3.47461 22.75 3.47461H3.25Z" fill="#12395C"/>
<path d="M19.5 9.97461H6.5C6.05069 9.97461 5.6875 9.61061 5.6875 9.16211C5.6875 8.71361 6.05069 8.34961 6.5 8.34961H19.5C19.9493 8.34961 20.3125 8.71361 20.3125 9.16211C20.3125 9.61061 19.9493 9.97461 19.5 9.97461Z" fill="#12395C"/>
<path d="M13 13.2246H6.5C6.05069 13.2246 5.6875 12.8606 5.6875 12.4121C5.6875 11.9636 6.05069 11.5996 6.5 11.5996H13C13.4493 11.5996 13.8125 11.9636 13.8125 12.4121C13.8125 12.8606 13.4493 13.2246 13 13.2246Z" fill="#12395C"/>
</svg>
