<svg width="50" height="50" viewBox="0 0 50 50" fill="none" xmlns="http://www.w3.org/2000/svg">
<circle cx="25" cy="25" r="25" fill="#50B476"/>
<path d="M28.4423 12.9319C28.7846 12.9299 29.1198 13.0299 29.405 13.2191C29.6903 13.4084 29.9128 13.6783 30.044 13.9944C30.1753 14.3106 30.2094 14.6587 30.1421 14.9943C30.0748 15.33 29.909 15.638 29.666 15.879L20.5316 24.9961L29.666 34.1132C29.9905 34.4377 30.1728 34.8779 30.1728 35.3369C30.1728 35.5641 30.128 35.7892 30.0411 35.9991C29.9541 36.2091 29.8266 36.3998 29.666 36.5605C29.5053 36.7212 29.3145 36.8487 29.1045 36.9357C28.8946 37.0226 28.6696 37.0674 28.4423 37.0674C27.9833 37.0674 27.5432 36.8851 27.2186 36.5605L16.8779 26.2198C16.5569 25.8969 16.3767 25.46 16.3767 25.0047C16.3767 24.5494 16.5569 24.1126 16.8779 23.7897L27.2186 13.4489C27.3783 13.2861 27.5686 13.1565 27.7787 13.0678C27.9887 12.979 28.2143 12.9328 28.4423 12.9319Z" fill="#E7EBF0"/>
</svg>
