<svg width="39" height="38" viewBox="0 0 39 38" fill="none" xmlns="http://www.w3.org/2000/svg">
<path d="M19.6514 38C30.1448 38 38.6514 29.4934 38.6514 19C38.6514 8.50659 30.1448 0 19.6514 0C9.15796 0 0.651367 8.50659 0.651367 19C0.651367 29.4934 9.15796 38 19.6514 38Z" fill="#50B476"/>
<path d="M14.3405 10.3636C14.3405 11.0042 14.1505 11.6303 13.7947 12.1629C13.4388 12.6955 12.933 13.1106 12.3412 13.3558C11.7494 13.6009 11.0983 13.665 10.4701 13.54C9.84183 13.4151 9.26477 13.1066 8.81184 12.6537C8.35892 12.2008 8.05047 11.6237 7.92551 10.9955C7.80055 10.3672 7.86468 9.71605 8.10981 9.12427C8.35493 8.53248 8.77002 8.02667 9.30261 7.67081C9.83519 7.31494 10.4613 7.125 11.1019 7.125C11.9608 7.125 12.7845 7.46621 13.3919 8.07358C13.9992 8.68094 14.3405 9.5047 14.3405 10.3636Z" fill="white"/>
<path d="M13.6066 15.7612V30.0695C13.6072 30.175 13.5869 30.2797 13.5469 30.3773C13.5069 30.475 13.448 30.5638 13.3735 30.6387C13.2991 30.7135 13.2106 30.7729 13.1131 30.8134C13.0156 30.854 12.9111 30.8748 12.8056 30.8748H9.39205C9.2865 30.8751 9.18193 30.8545 9.08435 30.8143C8.98678 30.774 8.89812 30.7149 8.82348 30.6402C8.74884 30.5656 8.68969 30.4769 8.64943 30.3793C8.60917 30.2818 8.58859 30.1772 8.58887 30.0716V15.7612C8.58887 15.5482 8.67349 15.3439 8.82412 15.1933C8.97474 15.0426 9.17904 14.958 9.39205 14.958H12.8056C13.0182 14.9586 13.222 15.0435 13.3721 15.194C13.5223 15.3446 13.6066 15.5485 13.6066 15.7612Z" fill="white"/>
<path d="M31.4493 23.2102V30.1366C31.4496 30.2337 31.4307 30.3298 31.3937 30.4195C31.3567 30.5092 31.3023 30.5908 31.2337 30.6594C31.1651 30.728 31.0836 30.7824 30.9939 30.8194C30.9041 30.8564 30.808 30.8753 30.7109 30.875H27.0405C26.9434 30.8753 26.8473 30.8564 26.7576 30.8194C26.6679 30.7824 26.5863 30.728 26.5177 30.6594C26.4491 30.5908 26.3947 30.5092 26.3577 30.4195C26.3207 30.3298 26.3018 30.2337 26.3021 30.1366V23.424C26.3021 22.4222 26.5957 19.0367 23.6831 19.0367C21.4268 19.0367 20.967 21.3534 20.8763 22.3941V30.1366C20.8763 30.3306 20.8 30.5168 20.6638 30.655C20.5277 30.7931 20.3426 30.8722 20.1487 30.875H16.6034C16.5066 30.875 16.4107 30.8559 16.3212 30.8188C16.2317 30.7816 16.1505 30.7272 16.0821 30.6586C16.0137 30.59 15.9595 30.5086 15.9226 30.419C15.8857 30.3294 15.8669 30.2335 15.8672 30.1366V15.6988C15.8669 15.6019 15.8857 15.5059 15.9226 15.4164C15.9595 15.3268 16.0137 15.2454 16.0821 15.1768C16.1505 15.1082 16.2317 15.0537 16.3212 15.0166C16.4107 14.9795 16.5066 14.9604 16.6034 14.9604H20.1487C20.3445 14.9604 20.5323 15.0382 20.6708 15.1766C20.8093 15.3151 20.8871 15.5029 20.8871 15.6988V16.9467C21.7248 15.6901 22.9663 14.7207 25.6155 14.7207C31.4839 14.7207 31.4493 20.2005 31.4493 23.2102Z" fill="white"/>
</svg>
