<svg width="28" height="28" viewBox="0 0 28 28" fill="none" xmlns="http://www.w3.org/2000/svg">
<path d="M13.9424 23.8953C11.2396 23.8953 8.53682 23.4661 5.97322 22.6077C4.99882 22.2713 4.25642 21.5869 3.93162 20.6937C3.59522 19.8005 3.71122 18.8145 4.24482 17.9329L5.57882 15.7173C5.85722 15.2533 6.11242 14.3253 6.11242 13.7801V10.4277C6.11242 6.11246 9.62722 2.59766 13.9424 2.59766C18.2576 2.59766 21.7724 6.11246 21.7724 10.4277V13.7801C21.7724 14.3137 22.0276 15.2533 22.306 15.7289L23.6284 17.9329C24.1272 18.7681 24.22 19.7773 23.8836 20.6937C23.5472 21.6101 22.8164 22.3061 21.9 22.6077C19.348 23.4661 16.6452 23.8953 13.9424 23.8953ZM13.9424 4.33766C10.59 4.33766 7.85242 7.06366 7.85242 10.4277V13.7801C7.85242 14.6269 7.50442 15.8797 7.07522 16.6105L5.74122 18.8261C5.48602 19.2553 5.41642 19.7077 5.56722 20.0905C5.70642 20.4849 6.05442 20.7865 6.53002 20.9489C11.3788 22.5729 16.5176 22.5729 21.3664 20.9489C21.784 20.8097 22.1088 20.4965 22.2596 20.0789C22.4104 19.6613 22.3756 19.2089 22.1436 18.8261L20.8096 16.6105C20.3688 15.8565 20.0324 14.6153 20.0324 13.7685V10.4277C20.0324 7.06366 17.3064 4.33766 13.9424 4.33766Z" fill="#12395C"/>
<path d="M16.1012 4.65082C16.02 4.65082 15.9388 4.63922 15.8576 4.61602C15.5212 4.52322 15.1964 4.45362 14.8832 4.40722C13.8972 4.27962 12.946 4.34922 12.0528 4.61602C11.728 4.72042 11.38 4.61602 11.1596 4.37242C10.9392 4.12882 10.8696 3.78082 10.9972 3.46762C11.4728 2.24962 12.6328 1.44922 13.9552 1.44922C15.2776 1.44922 16.4376 2.23802 16.9132 3.46762C17.0292 3.78082 16.9712 4.12882 16.7508 4.37242C16.5768 4.55802 16.3332 4.65082 16.1012 4.65082Z" fill="#12395C"/>
<path d="M13.9438 26.5395C12.7954 26.5395 11.6817 26.0755 10.8697 25.2635C10.0577 24.4515 9.59375 23.3379 9.59375 22.1895H11.3338C11.3338 22.8739 11.6121 23.5467 12.0993 24.0339C12.5865 24.5211 13.2594 24.7995 13.9438 24.7995C15.3822 24.7995 16.5538 23.6279 16.5538 22.1895H18.2938C18.2938 24.5907 16.345 26.5395 13.9438 26.5395Z" fill="#12395C"/>
</svg>
